<svg version="1.1" id="Layer_1" xmlns="http://www.w3.org/2000/svg" xmlns:xlink="http://www.w3.org/1999/xlink" x="0px" y="0px"
	 width="100%" viewBox="0 0 992 784" enable-background="new 0 0 992 784" xml:space="preserve">
<path fill="#000000" opacity="1.000000" stroke="none" 
	d="
M478.624969,637.809509 
	C450.110046,633.218262 428.509033,610.439575 424.616547,581.852783 
	C422.764679,568.252441 424.811066,555.374756 429.554260,542.710510 
	C447.832886,493.907288 463.961029,444.381897 479.510834,394.653809 
	C505.056549,312.959076 546.187134,239.886749 601.581726,174.713364 
	C622.983215,149.533920 646.003967,125.974556 670.600769,103.932213 
	C671.840149,102.821510 673.162537,101.803665 674.441162,100.736420 
	C676.781860,98.782631 679.231567,98.274841 681.572632,100.586952 
	C683.960876,102.945648 683.247314,105.260712 681.320068,107.650528 
	C675.048340,115.427734 668.658142,123.122932 662.697144,131.135071 
	C616.373108,193.398788 583.237793,262.184479 561.279114,336.501099 
	C553.579346,362.560089 547.845459,389.036194 544.593750,415.989655 
	C541.656921,440.332855 541.436951,464.783447 542.966248,489.278961 
	C544.285889,510.417175 548.140625,531.142273 551.801208,551.938049 
	C554.480225,567.157593 554.378845,582.415527 549.322815,597.327820 
	C541.301331,620.986755 519.629944,636.121704 494.017181,638.246033 
	C489.060242,638.657166 484.028809,638.693054 478.624969,637.809509 
z"/>
<path fill="#000000" opacity="1.000000" stroke="none" 
	d="
M590.635864,355.720306 
	C603.073486,336.953796 621.346252,330.216858 642.353394,330.032440 
	C683.847717,329.668182 725.346985,329.867676 766.844238,329.867523 
	C773.071716,329.867523 778.476379,331.767639 781.265015,337.830994 
	C783.587952,342.881744 783.127991,347.941864 779.748352,352.465118 
	C776.173096,357.250214 770.930176,358.001007 765.432983,357.997894 
	C738.768188,357.982819 712.103333,357.955475 685.438538,357.984558 
	C669.774536,358.001648 654.106873,357.926788 638.447937,358.243622 
	C624.725708,358.521240 615.196960,365.082092 610.174866,378.111969 
	C605.113281,391.244171 603.805176,405.043945 603.507263,418.823578 
	C602.952576,444.485199 605.352966,470.013428 608.991150,495.413086 
	C611.984436,516.310547 616.260681,537.109802 617.797424,558.111450 
	C620.518616,595.299255 610.158936,629.011169 586.013550,657.868774 
	C565.121216,682.838501 538.372925,698.293091 506.021942,701.592896 
	C453.159027,706.985046 407.933716,692.285889 376.670990,646.552429 
	C364.403229,628.606323 358.804291,608.182007 357.524475,586.388550 
	C355.885040,558.472290 363.754364,532.902588 374.520599,507.671417 
	C388.765442,474.287933 402.778046,440.774200 413.490356,406.033020 
	C417.260651,393.805511 420.857483,381.458160 420.794556,368.448578 
	C420.750977,359.441589 419.255157,357.967102 410.335419,357.971069 
	C352.839478,357.996521 295.343536,358.026031 237.847595,358.010773 
	C235.199905,358.010071 232.486542,357.886932 229.917679,357.311859 
	C223.575333,355.892090 219.418518,350.468872 219.284058,343.903992 
	C219.156052,337.653259 223.086670,332.322754 229.364456,330.654633 
	C231.583267,330.065033 233.967361,329.879333 236.276138,329.878357 
	C294.105682,329.854156 351.935211,329.875732 409.764771,329.901337 
	C415.453278,329.903839 421.087952,330.486755 426.493652,332.332367 
	C439.422913,336.746643 447.671509,348.879425 448.364136,363.455109 
	C449.326050,383.697296 443.681030,402.667358 437.575562,421.533386 
	C425.460388,458.969604 409.812195,495.042816 394.861176,531.384216 
	C385.722321,553.598083 381.916962,576.647217 387.218109,600.284302 
	C396.292877,640.747437 422.723358,664.084229 462.488373,672.486816 
	C486.079254,677.471802 509.621063,676.529724 531.782837,665.553284 
	C563.843079,649.674133 581.783325,623.251770 588.727173,588.639099 
	C592.486694,569.899170 589.450867,551.557190 586.444763,533.126831 
	C582.616089,509.652313 579.324463,486.110840 577.529541,462.362885 
	C576.386475,447.239258 575.214355,432.124359 575.850525,416.968994 
	C576.599060,399.137299 578.264160,381.402435 585.756531,364.832825 
	C587.123596,361.809448 588.873718,358.959290 590.635864,355.720306 
z"/>
</svg>