<?xml version="1.0" encoding="UTF-8"?>
<svg version="1.1" xmlns="http://www.w3.org/2000/svg" width="512" height="512">
<path d="M0 0 C5.27887219 4.27661703 10.31245352 8.81320254 15.22387695 13.50488281 C16.60299639 14.81911357 17.99835799 16.11623552 19.39428711 17.41259766 C47.18300824 43.99486201 61.35622133 75.67036054 62.58569336 113.81494141 C62.93933812 132.50533096 61.19832772 151.20190506 57.88964844 169.5859375 C56.55459449 177.19766371 56.3072398 183.03552284 60.15600586 189.99462891 C65.27229467 199.30508471 64.90782294 210.49053321 62.09350586 220.55712891 C56.95938497 235.29760142 46.91248734 245.89800103 33.51538086 253.59228516 C30.53065023 254.92562794 27.89059093 255.48205288 24.65600586 255.86962891 C24.98600586 256.19962891 25.31600586 256.52962891 25.65600586 256.86962891 C27.05286324 256.83728063 28.44894972 256.76855868 29.84350586 256.68212891 C34.59595215 256.64447085 36.99094187 257.70434637 40.65600586 260.86962891 C53.79567129 274.00929434 59.66215351 299.08454691 59.75366211 317.33056641 C59.4791953 329.2770955 57.02814654 339.96270391 48.65600586 348.86962891 C47.14877292 350.17714016 45.62719483 351.4682532 44.09350586 352.74462891 C36.46686958 359.40361183 34.0973007 368.15608823 30.90600586 377.49462891 C30.59969238 378.38947998 30.29337891 379.28433105 29.9777832 380.20629883 C28.24996448 385.45725549 27.14394543 390.36104794 26.65600586 395.86962891 C27.3243042 396.10037109 27.99260254 396.33111328 28.68115234 396.56884766 C63.80667559 408.76650727 88.38219668 422.31488856 105.34350586 456.86962891 C105.69485596 457.5632251 106.04620605 458.25682129 106.40820312 458.97143555 C108.58234909 463.6162274 109.02016722 466.74601816 107.65600586 471.86962891 C105.65600586 473.86962891 105.65600586 473.86962891 102.78100586 474.24462891 C98.83654494 473.7712936 98.173393 472.88952711 95.65600586 469.86962891 C94.34540154 467.40277409 93.13667012 464.9631014 91.96850586 462.43212891 C77.99400343 433.45311111 56.67527209 421.36549613 27.65600586 410.86962891 C31.00870197 421.4582914 34.91811338 431.66224736 39.28100586 441.86962891 C39.85965014 443.23529442 40.43777663 444.60117944 41.01538086 445.96728516 C43.70447789 452.36837001 43.70447789 452.36837001 46.49407959 458.72558594 C48.41349325 463.02161295 49.20187658 466.13874933 48.65600586 470.86962891 C47.53100586 472.80712891 47.53100586 472.80712891 45.65600586 473.86962891 C42.71850586 474.30712891 42.71850586 474.30712891 39.65600586 473.86962891 C35.73246528 470.77938099 34.09230263 466.89156144 32.26538086 462.37744141 C31.95933929 461.64274628 31.65329773 460.90805115 31.33798218 460.15109253 C30.3500448 457.76982742 29.3774324 455.38267188 28.40600586 452.99462891 C27.73296747 451.35908816 27.0596266 449.72367185 26.38598633 448.08837891 C12.42779428 414.05187423 8.47138397 393.52247958 23.08911133 358.48413086 C23.50563965 357.49243896 23.92216797 356.50074707 24.35131836 355.47900391 C28.33952747 345.92412174 30.82292093 337.3657155 30.96850586 326.93212891 C31.01201172 325.9450293 31.01201172 325.9450293 31.05639648 324.93798828 C31.24638671 309.25648703 23.31185384 293.31319915 17.90600586 278.93212891 C17.10458731 276.78458017 16.30380129 274.63679527 15.50366211 272.48876953 C13.56172012 267.27964691 11.6120178 262.07348353 9.65600586 256.86962891 C8.66600586 256.86962891 7.67600586 256.86962891 6.65600586 256.86962891 C6.33069878 265.16013999 7.3393922 273.11372862 8.53100586 281.30712891 C8.79204102 283.17594727 8.79204102 283.17594727 9.05834961 285.08251953 C9.98369066 291.61131469 11.01053534 298.10308332 12.2565918 304.57861328 C13.82440923 313.5715221 11.67956522 320.55413574 6.48022461 327.97509766 C3.94230722 331.32933382 1.30202517 334.60049568 -1.34399414 337.86962891 C-12.08643458 351.28024043 -21.18318915 365.97755514 -20.69946289 383.76025391 C-19.98441737 390.01493784 -18.03893096 396.04961001 -15.48876953 401.79711914 C-11.60417036 410.74765061 -9.5819126 420.23364382 -7.28149414 429.68212891 C-6.84397776 431.45377013 -6.40583088 433.22525578 -5.96704102 434.99658203 C-4.74315441 439.9503923 -3.53830793 444.90861254 -2.34399414 449.86962891 C-2.17899414 450.55287231 -2.01399414 451.23611572 -1.84399414 451.94006348 C-1.41116737 453.73974167 -0.98476182 455.5409608 -0.55883789 457.34228516 C-0.3293042 458.31302979 -0.09977051 459.28377441 0.13671875 460.28393555 C1.00426523 464.60372153 1.78029552 468.87089173 -0.46899414 472.86962891 C-3.28919289 474.37373491 -5.2000947 474.3187574 -8.34399414 473.86962891 C-12.67923993 470.67504772 -13.46051092 466.71409483 -14.49243164 461.68603516 C-14.67031219 460.88228958 -14.84819275 460.07854401 -15.03146362 459.2504425 C-15.41022255 457.53425375 -15.78265442 455.81665844 -16.14929199 454.09783936 C-17.10125035 449.64350238 -18.10373205 445.20053666 -19.10180664 440.75634766 C-19.2956897 439.88798279 -19.48957275 439.01961792 -19.68933105 438.12493896 C-22.62845275 425.03524558 -26.15788265 412.27871676 -31.26977539 399.86181641 C-32.44284185 396.5942931 -33.08108903 393.40452165 -33.71899414 389.99462891 C-34.86080555 384.62554941 -36.35115016 382.24175966 -40.44165039 378.71337891 C-49.51608196 369.91844729 -53.92414411 354.9124417 -54.44165039 342.53369141 C-54.40909831 340.64567057 -54.37654622 338.75764974 -54.34399414 336.86962891 C-55.0362207 337.18416016 -55.72844727 337.49869141 -56.44165039 337.82275391 C-77.38036961 346.98171936 -92.67580463 347.39872373 -113.65258789 339.64697266 C-115.90130203 338.757056 -118.13043327 337.84316059 -120.34399414 336.86962891 C-120.26149414 338.02462891 -120.17899414 339.17962891 -120.09399414 340.36962891 C-120.13154315 352.29143931 -124.28588272 367.49544211 -132.59008789 376.23291016 C-133.37512695 376.99990234 -134.16016602 377.76689453 -134.96899414 378.55712891 C-139.53496826 383.31366956 -140.81311404 387.67304214 -141.85229492 394.01489258 C-142.68060517 398.84087742 -144.17610279 402.98955485 -146.10180664 407.49853516 C-150.31650956 417.52656313 -152.56417304 428.05670627 -155.03149414 438.61962891 C-155.74243523 441.61610139 -156.45659892 444.61178743 -157.17182922 447.60723877 C-157.61140653 449.45311231 -158.04800775 451.2996985 -158.48088074 453.14715576 C-159.08812308 455.72486865 -159.71332232 458.29755473 -160.34399414 460.86962891 C-160.5805069 461.8670813 -160.81701965 462.86453369 -161.06069946 463.89221191 C-161.30863251 464.88281616 -161.55656555 465.87342041 -161.81201172 466.89404297 C-162.03319168 467.79801819 -162.25437164 468.70199341 -162.48225403 469.63336182 C-163.34399414 471.86962891 -163.34399414 471.86962891 -166.34399414 473.86962891 C-169.43155344 474.19124967 -171.48414976 474.35687406 -174.21899414 472.80712891 C-177.17718655 467.71246421 -174.8660222 460.78137676 -173.58618164 455.35791016 C-173.31087112 454.15455772 -173.31087112 454.15455772 -173.02999878 452.92689514 C-172.43530636 450.34312745 -171.82820486 447.76250907 -171.21899414 445.18212891 C-171.01391235 444.30413635 -170.80883057 443.4261438 -170.59753418 442.52154541 C-166.77666207 426.18168942 -162.7224868 410.04842497 -156.32446289 394.49853516 C-151.87206308 382.5604273 -154.22082085 370.16998416 -159.34399414 358.86962891 C-163.60191408 350.21707694 -169.00681526 342.7930093 -175.37524414 335.59204102 C-181.98094201 328.03044049 -187.66739511 319.78262153 -187.53100586 309.44335938 C-187.10293662 303.5520984 -185.93570221 297.74267506 -184.90649414 291.93212891 C-182.15473513 276.96592079 -182.15473513 276.96592079 -181.28149414 261.80712891 C-181.29051758 260.86740234 -181.29954102 259.92767578 -181.30883789 258.95947266 C-181.32043945 258.26982422 -181.33204102 257.58017578 -181.34399414 256.86962891 C-182.33399414 256.86962891 -183.32399414 256.86962891 -184.34399414 256.86962891 C-186.70177861 263.14237569 -189.04826235 269.41926987 -191.38745117 275.69897461 C-192.18214148 277.82849378 -192.9792813 279.9571007 -193.77905273 282.0847168 C-204.34248681 310.19878758 -209.78914492 331.14287909 -197.39990234 359.7097168 C-189.3681435 378.23956357 -182.22900972 398.27179409 -189.28149414 418.11962891 C-189.61560303 419.09109863 -189.94971191 420.06256836 -190.29394531 421.06347656 C-194.16861504 431.950666 -198.67282237 442.59763667 -203.15649414 453.24462891 C-203.53611298 454.15136353 -203.91573181 455.05809814 -204.30685425 455.99230957 C-205.39825598 458.58899464 -206.50323833 461.17940851 -207.61352539 463.76806641 C-207.94456268 464.5565799 -208.27559998 465.34509338 -208.6166687 466.15750122 C-210.18463422 469.76678886 -210.99882203 471.63951417 -214.34399414 473.86962891 C-217.43155344 474.19124967 -219.48414976 474.35687406 -222.21899414 472.80712891 C-223.95518105 469.81702923 -223.53897151 467.27829471 -223.34399414 463.86962891 C-222.38525391 460.88549805 -222.38525391 460.88549805 -221.03540039 457.90478516 C-220.53943359 456.78555664 -220.0434668 455.66632813 -219.5324707 454.51318359 C-218.7276123 452.74056152 -218.7276123 452.74056152 -217.90649414 450.93212891 C-216.80022161 448.44239589 -215.70544273 445.94771802 -214.61352539 443.45166016 C-214.33765594 442.82286957 -214.0617865 442.19407898 -213.77755737 441.54623413 C-209.54242014 431.82254101 -205.94820114 421.84071462 -202.34399414 411.86962891 C-216.21062617 411.86962891 -237.55807537 424.07513103 -247.30493164 433.59619141 C-256.7811375 444.16161633 -264.20278112 455.68210767 -269.90649414 468.68212891 C-271.68133613 472.32175421 -271.91258658 472.70312072 -275.90649414 474.24462891 C-279.34399414 473.86962891 -279.34399414 473.86962891 -281.84399414 472.43212891 C-283.97087328 468.79871038 -283.30228957 465.80058724 -282.34399414 461.86962891 C-281.07747969 458.65174144 -279.50359699 455.65056994 -277.84399414 452.61962891 C-277.39548096 451.7869751 -276.94696777 450.95432129 -276.48486328 450.09643555 C-272.67246927 443.17023971 -268.42032731 436.94680219 -263.34399414 430.86962891 C-262.30178711 429.56638672 -262.30178711 429.56638672 -261.23852539 428.23681641 C-246.04518224 410.1376426 -223.03283936 403.02352615 -201.34399414 395.86962891 C-202.24407852 385.70814999 -205.88579181 376.40486641 -209.34399414 366.86962891 C-209.72426758 365.81259766 -210.10454102 364.75556641 -210.49633789 363.66650391 C-213.02175958 357.75797015 -217.11937318 354.22356286 -221.88720703 350.10888672 C-230.63883208 342.33026927 -233.53491791 332.30829279 -234.34399414 320.86962891 C-234.58389428 314.62574161 -233.85587004 308.93019922 -232.65649414 302.80712891 C-232.47787842 301.88826904 -232.2992627 300.96940918 -232.11523438 300.02270508 C-229.12573732 285.28077182 -224.81604451 269.34076213 -213.34399414 258.86962891 C-210.33586788 256.96815072 -208.18501567 256.66132223 -204.65649414 256.80712891 C-203.21986068 256.8612084 -201.7815002 256.89003974 -200.34399414 256.86962891 C-200.01399414 256.53962891 -199.68399414 256.20962891 -199.34399414 255.86962891 C-200.21668945 255.76392578 -201.08938477 255.65822266 -201.98852539 255.54931641 C-213.71562895 253.1738612 -223.22663341 243.60411818 -230.22290039 234.39697266 C-237.50719708 223.16929731 -240.3052476 210.19795648 -237.80102539 197.01025391 C-236.71381648 193.04584572 -235.37514693 189.78343742 -233.09399414 186.36962891 C-231.32455803 182.83075668 -231.15056734 182.21087001 -231.60961914 178.55712891 C-231.77059082 177.2277832 -231.77059082 177.2277832 -231.93481445 175.87158203 C-232.06984375 174.8809375 -232.20487305 173.89029297 -232.34399414 172.86962891 C-232.49191406 171.78101563 -232.63983398 170.69240234 -232.79223633 169.57080078 C-233.12730198 167.14307959 -233.46473985 164.71568495 -233.80419922 162.28857422 C-240.14041184 116.28726937 -239.46924722 74.66944959 -210.53198242 36.43212891 C-210.13994629 35.91650391 -209.74791016 35.40087891 -209.34399414 34.86962891 C-208.67239258 33.97244141 -208.00079102 33.07525391 -207.30883789 32.15087891 C-182.64558407 0.59712065 -147.90674596 -22.02443994 -108.34399414 -29.13037109 C-107.33079102 -29.31599609 -106.31758789 -29.50162109 -105.27368164 -29.69287109 C-67.82348694 -33.86227647 -29.70503392 -23.39459097 0 0 Z M-183.34399414 25.86962891 C-184.11743164 26.58119141 -184.89086914 27.29275391 -185.68774414 28.02587891 C-196.80607742 38.49967113 -205.8475052 51.62583177 -213.34399414 64.86962891 C-213.82352539 65.68173828 -214.30305664 66.49384766 -214.79711914 67.33056641 C-229.87579805 94.67202635 -225.10503379 132.95085652 -220.84399414 162.43212891 C-220.72572266 163.25302002 -220.60745117 164.07391113 -220.4855957 164.91967773 C-219.91371347 168.51641401 -219.39197305 170.79766054 -217.34399414 173.86962891 C-213.38399414 172.87962891 -209.42399414 171.88962891 -205.34399414 170.86962891 C-205.11325195 169.20416016 -204.88250977 167.53869141 -204.64477539 165.82275391 C-201.37407472 143.22968136 -196.41491432 129.5210449 -177.90649414 115.49462891 C-162.78485203 103.72469097 -155.95806044 89.24234926 -149.10961914 71.70947266 C-142.23086534 54.40092008 -132.11348548 41.94382844 -115.34399414 33.86962891 C-99.31049273 27.15793064 -80.17177733 28.20566109 -64.23999023 34.73144531 C-55.83465688 38.42933048 -48.26093311 42.78272261 -41.34399414 48.86962891 C-40.63758789 49.45744141 -39.93118164 50.04525391 -39.20336914 50.65087891 C-36.13591199 53.24117606 -33.5492775 55.59165625 -31.14868164 58.84228516 C-28.0336066 62.64454386 -24.2081502 64.00022302 -19.71899414 65.74462891 C-1.76084633 73.26165709 9.80715203 85.20970778 17.65600586 102.86962891 C25.49011134 122.03818486 27.42657047 142.61220329 29.33056641 163.04907227 C29.63362698 165.67567304 30.13746956 168.27694739 30.65600586 170.86962891 C34.94600586 171.85962891 39.23600586 172.84962891 43.65600586 173.86962891 C51.52822216 137.37117153 56.40327429 91.6935598 35.34155273 58.81787109 C10.97818077 22.03822772 -22.33228138 -5.83524353 -65.98095703 -15.72802734 C-110.0434007 -24.56655818 -152.43899519 -4.3561393 -183.34399414 25.86962891 Z M-129.18383789 59.81884766 C-134.73090955 67.6529579 -138.18257766 76.78732303 -141.62524414 85.69775391 C-148.74148475 104.10715895 -158.9411385 117.2423585 -174.68579102 129.1550293 C-179.47126707 132.84731272 -182.94417221 136.87780791 -186.34399414 141.86962891 C-186.01399414 142.52962891 -185.68399414 143.18962891 -185.34399414 143.86962891 C-184.50739258 143.54349609 -183.67079102 143.21736328 -182.80883789 142.88134766 C-163.39725774 135.59394381 -140.42906647 131.46838532 -120.40649414 138.89697266 C-118.34399414 139.86962891 -118.34399414 139.86962891 -117.34399414 140.86962891 C-117.21899414 143.86962891 -117.21899414 143.86962891 -117.34399414 146.86962891 C-118.34399414 147.86962891 -118.34399414 147.86962891 -120.42602539 148.00244141 C-125.1645418 147.98888342 -129.81712217 147.85925211 -134.53149414 147.36962891 C-149.8361762 145.99100872 -165.19519192 146.36395581 -180.34399414 148.86962891 C-183.34145036 149.23625326 -186.34072326 149.55349513 -189.34399414 149.86962891 C-195.62443346 172.59883789 -193.30519225 198.93595889 -189.34399414 221.86962891 C-189.18833984 222.8625293 -189.03268555 223.85542969 -188.87231445 224.87841797 C-188.39641652 227.82594547 -187.85242031 230.75167784 -187.28149414 233.68212891 C-187.13881104 234.56666748 -186.99612793 235.45120605 -186.84912109 236.36254883 C-186.29161996 238.90518731 -185.80763042 240.71176293 -184.34399414 242.86962891 C-181.79145604 244.14696978 -179.46827846 244.79268308 -176.67236328 245.34716797 C-172.84982315 246.20490477 -171.28943312 248.39856681 -169.26196289 251.55322266 C-167.98768665 254.76873676 -168.11753092 257.54461272 -168.15649414 260.99462891 C-168.15641357 261.66405518 -168.15633301 262.33348145 -168.15625 263.02319336 C-168.18615889 266.84923097 -168.60634951 270.32918231 -169.40649414 274.05712891 C-169.90244696 278.61839193 -168.41422439 280.93283507 -165.78149414 284.61962891 C-164.00574139 286.76154462 -162.22485942 288.82587325 -160.34399414 290.86962891 C-159.55436279 291.72959473 -159.55436279 291.72959473 -158.7487793 292.60693359 C-140.95702718 311.67585515 -114.64984405 331.67812329 -87.52368164 333.06494141 C-83.30612992 332.99480528 -79.42513686 332.10216555 -75.40649414 330.86962891 C-74.31449707 330.53850098 -74.31449707 330.53850098 -73.20043945 330.20068359 C-47.90695036 322.17496937 -20.17648617 303.61617718 -6.44946289 280.40087891 C-5.18042861 277.49510431 -5.11563632 275.39069332 -5.85961914 272.29931641 C-7.19289357 265.61143983 -7.89105778 255.77625619 -4.78149414 249.55712891 C-1.20969842 245.61899517 2.46745078 244.14109929 7.71069336 243.49072266 C10.77796625 242.19703931 10.77796625 242.19703931 11.57348633 239.71704102 C12.32804878 236.739528 12.89204791 233.77291351 13.40600586 230.74462891 C13.69797852 229.24222656 13.69797852 229.24222656 13.99584961 227.70947266 C16.67463022 213.45260673 18.04197798 199.4821239 17.96850586 184.99462891 C17.96668304 184.24016479 17.96486023 183.48570068 17.96298218 182.70837402 C17.84021844 152.25497064 15.76425908 112.3741084 -5.90649414 88.61962891 C-12.62167336 82.36082109 -21.30353848 77.89447552 -29.84399414 74.68212891 C-35.74958015 72.45669601 -39.49172541 68.92668751 -43.46899414 64.11962891 C-54.42315153 51.35984118 -70.47590954 42.92567232 -87.19946289 41.55322266 C-104.42224066 40.8205593 -117.9370899 46.74723051 -129.18383789 59.81884766 Z M-219.12524414 189.48291016 C-224.49611474 195.41982839 -225.82864552 201.01316531 -225.65649414 208.93212891 C-224.33657167 221.3394001 -216.93417654 229.97314992 -207.96899414 237.99462891 C-204.86371466 240.21268567 -201.89116512 241.47858146 -198.34399414 242.86962891 C-198.97324174 236.48726038 -199.92153246 230.27394729 -201.21899414 223.99462891 C-201.38012695 223.15416016 -201.54125977 222.31369141 -201.70727539 221.44775391 C-201.87356445 220.64080078 -202.03985352 219.83384766 -202.21118164 219.00244141 C-202.35668457 218.27943848 -202.5021875 217.55643555 -202.65209961 216.81152344 C-203.47290621 214.50781995 -204.46497907 213.41178643 -206.34399414 211.86962891 C-208.32007097 211.30772292 -208.32007097 211.30772292 -210.40649414 211.05712891 C-212.53149414 210.59228516 -212.53149414 210.59228516 -214.34399414 209.86962891 C-216.52224754 205.86164266 -216.46170472 204.34047124 -215.34399414 199.86962891 C-209.89899414 199.37462891 -209.89899414 199.37462891 -204.34399414 198.86962891 C-204.67399414 193.91962891 -205.00399414 188.96962891 -205.34399414 183.86962891 C-210.92988216 183.86962891 -214.9705999 185.72004158 -219.12524414 189.48291016 Z M30.65600586 183.86962891 C30.65600586 188.81962891 30.65600586 193.76962891 30.65600586 198.86962891 C33.95600586 199.19962891 37.25600586 199.52962891 40.65600586 199.86962891 C40.94897461 206.70556641 40.94897461 206.70556641 40.65600586 208.86962891 C37.65600586 210.86962891 37.65600586 210.86962891 34.09350586 211.86962891 C30.6252726 212.57939897 30.6252726 212.57939897 28.65600586 214.86962891 C27.89577655 217.42828905 27.89577655 217.42828905 27.33178711 220.42822266 C27.10813477 221.53617188 26.88448242 222.64412109 26.65405273 223.78564453 C26.42782227 224.94773437 26.2015918 226.10982422 25.96850586 227.30712891 C25.61175781 229.04446289 25.61175781 229.04446289 25.24780273 230.81689453 C25.02801758 231.92613281 24.80823242 233.03537109 24.58178711 234.17822266 C24.37980713 235.197146 24.17782715 236.21606934 23.96972656 237.26586914 C23.45473661 239.9782226 23.45473661 239.9782226 24.65600586 242.86962891 C36.8518279 237.27251251 44.72737216 228.27305393 49.65600586 215.86962891 C51.94608988 208.53287825 51.44947428 200.71893877 47.99194336 193.87744141 C44.79467283 189.07218687 40.27396137 185.38799526 34.65600586 183.86962891 C33.33600586 183.86962891 32.01600586 183.86962891 30.65600586 183.86962891 Z M-206.34399414 269.86962891 C-216.53171967 282.08262518 -222.47577796 305.30760142 -221.34399414 320.86962891 C-221.05724997 322.87683814 -220.74163677 324.88141578 -220.34399414 326.86962891 C-220.01399414 326.86962891 -219.68399414 326.86962891 -219.34399414 326.86962891 C-219.24344727 325.67853516 -219.14290039 324.48744141 -219.03930664 323.26025391 C-217.27786443 306.36665255 -211.8432017 290.76967212 -205.20166016 275.18994141 C-204.17064076 272.81293386 -204.17064076 272.81293386 -204.34399414 269.86962891 C-205.00399414 269.86962891 -205.66399414 269.86962891 -206.34399414 269.86962891 Z M29.65600586 269.86962891 C30.24763845 274.13891318 31.2694929 277.85851854 32.83569336 281.86962891 C33.27010742 283.00529297 33.70452148 284.14095703 34.15209961 285.31103516 C35.05982353 287.65363145 35.97118805 289.99482084 36.88647461 292.33447266 C41.17128164 303.57103152 43.85339489 314.85814055 44.65600586 326.86962891 C44.98600586 326.86962891 45.31600586 326.86962891 45.65600586 326.86962891 C47.21986816 319.0503174 46.80725892 312.11243888 45.03100586 304.43212891 C44.85496826 303.66078613 44.67893066 302.88944336 44.49755859 302.09472656 C41.85120865 290.98751131 38.67976272 279.0395337 31.65600586 269.86962891 C30.99600586 269.86962891 30.33600586 269.86962891 29.65600586 269.86962891 Z M-172.34399414 297.86962891 C-172.71120894 299.57520508 -173.0621458 301.28428946 -173.40649414 302.99462891 C-173.6037207 303.94595703 -173.80094727 304.89728516 -174.00415039 305.87744141 C-174.94152946 314.13068703 -170.99758104 319.43722527 -166.34399414 325.86962891 C-164.71627097 327.82236823 -163.06978286 329.75959302 -161.40649414 331.68212891 C-152.74301624 341.87058926 -147.29523535 353.52903529 -142.34399414 365.86962891 C-133.63810613 358.33129439 -133.422248 344.40051014 -132.60571289 333.78759766 C-132.5193457 332.49466797 -132.43297852 331.20173828 -132.34399414 329.86962891 C-133.27598633 329.27537109 -134.20797852 328.68111328 -135.16821289 328.06884766 C-147.81577649 319.89269554 -158.83028346 310.70388199 -169.29711914 299.88916016 C-170.98339365 297.75257289 -170.98339365 297.75257289 -172.34399414 297.86962891 Z M-4.62817383 299.08789062 C-5.16861328 299.65266113 -5.70905273 300.21743164 -6.26586914 300.79931641 C-17.34481394 312.22539755 -28.67221874 321.59532796 -42.34399414 329.86962891 C-41.63048808 349.43065093 -41.63048808 349.43065093 -32.34399414 365.86962891 C-31.84770508 364.69787109 -31.35141602 363.52611328 -30.84008789 362.31884766 C-25.57608591 350.0618778 -19.64015598 339.61552417 -11.21899414 329.24462891 C-2.87696018 319.88527903 -2.87696018 319.88527903 -0.46899414 308.18212891 C-0.73472155 306.73960867 -1.02495094 305.30130175 -1.34399414 303.86962891 C-1.52961914 302.69400391 -1.71524414 301.51837891 -1.90649414 300.30712891 C-2.05086914 299.50275391 -2.19524414 298.69837891 -2.34399414 297.86962891 C-3.51809843 297.75492194 -3.51809843 297.75492194 -4.62817383 299.08789062 Z " fill="#000000" transform="translate(343.343994140625,35.13037109375)"/>
<path d="M0 0 C1.99935506 0.50765339 1.99935506 0.50765339 4.19140625 -0.69140625 C7.12758984 -1.78125606 8.62373082 -1.746735 11.6875 -1.3125 C17.347478 -0.6397977 22.88092295 -0.6448313 28.56762695 -0.81298828 C30.33697962 -0.84367694 32.10745082 -0.77306023 33.875 -0.6875 C35.875 1.3125 35.875 1.3125 36 4.4375 C35.95875 5.38625 35.9175 6.335 35.875 7.3125 C28.98578334 10.91368144 23.39603633 11.54496151 15.71875 11.83007812 C11.89078193 12.01933401 9.2216307 12.50214589 5.875 14.3125 C3.4375 14.578125 3.4375 14.578125 0.875 14.5625 C0.029375 14.56765625 -0.81625 14.5728125 -1.6875 14.578125 C-4.125 14.3125 -4.125 14.3125 -5.95703125 13.32421875 C-9.14062012 11.83854395 -12.36103308 11.97121931 -15.8125 11.875 C-30.1880183 11.2494817 -30.1880183 11.2494817 -34.125 7.3125 C-34.3125 4.375 -34.3125 4.375 -34.125 1.3125 C-32.125 -0.6875 -32.125 -0.6875 -28.67578125 -0.84765625 C-27.26282722 -0.82501702 -25.85001017 -0.79203141 -24.4375 -0.75 C-0.46396448 -0.15010615 -0.46396448 -0.15010615 0 0 Z " fill="#000000" transform="translate(255.125,294.6875)"/>
<path d="M0 0 C1.0921582 0.00684814 2.18431641 0.01369629 3.30957031 0.02075195 C14.70627034 0.24377445 36.32412986 1.76162986 45 10.4375 C45.04063832 12.10367115 45.042721 13.77138095 45 15.4375 C40.82884904 16.78303257 37.77372922 16.10266833 33.671875 15.0078125 C25.90182686 13.34929345 18.10378184 13.27754677 10.1875 13.3125 C9.12378174 13.31443359 8.06006348 13.31636719 6.96411133 13.31835938 C0.7881079 13.35246785 -5.30213565 13.57866276 -11.44921875 14.20703125 C-15.92943635 14.61182886 -20.51956614 14.91123763 -25 14.4375 C-27 12.4375 -27 12.4375 -27.4375 9.5 C-27 6.4375 -27 6.4375 -25.125 4.75 C-16.70451532 1.21339643 -9.12782774 -0.08855778 0 0 Z " fill="#000000" transform="translate(312,169.5625)"/>
<path d="M0 0 C9.81887431 3.92073106 17.00362496 4.87444594 27.55859375 3.4609375 C30.5625 3.5625 30.5625 3.5625 32.49609375 5.3828125 C33.5625 7.5625 33.5625 7.5625 33.1875 10.0625 C30.66563593 13.94229087 27.04513681 15.78635474 22.67578125 17.15234375 C9.64042322 19.68231157 -1.86435486 15.28556167 -12.98046875 8.82421875 C-16.22590077 7.15764555 -18.82027285 6.72326565 -22.4375 6.5625 C-23.25 4.875 -23.25 4.875 -23.4375 2.5625 C-16.51373674 -5.70755055 -9.0634316 -3.62751277 0 0 Z " fill="#000000" transform="translate(191.4375,215.4375)"/>
<path d="M0 0 C3 2.5625 3 2.5625 5 5 C4.5 6.875 4.5 6.875 3 9 C1.21014309 9.44746423 -0.58491118 9.8789942 -2.39453125 10.23828125 C-5.80220191 11.23452679 -8.81208951 12.85153272 -11.9375 14.5 C-21.2754981 19.32859662 -30.76059438 21.79056693 -41.30078125 19.5 C-45.98465931 17.94752818 -48.78962701 15.71199377 -52 12 C-51.3125 9.5625 -51.3125 9.5625 -50 7 C-46.75204981 5.57902179 -44.06499194 6.14823658 -40.6875 6.6875 C-31.3547328 7.77400126 -21.58077058 4.10071333 -13 0.6875 C-8.07709114 -1.17522227 -5.08894512 -1.49158736 0 0 Z " fill="#000000" transform="translate(339,213)"/>
<path d="M0 0 C3.625 0.3125 3.625 0.3125 5.5625 1.8125 C8.33279274 3.82725836 10.38970923 3.72844887 13.74609375 3.6171875 C16.27655148 3.206843 17.62173252 1.86341676 19.625 0.3125 C23.1875 -0.125 23.1875 -0.125 26.625 0.3125 C28.93130614 2.32121825 29.47903401 3.75782924 30.25 6.6875 C29.25010848 10.8870444 26.07531298 12.92112454 22.625 15.3125 C17.50550659 18.20221405 12.20377232 18.85972466 6.5 17.625 C2.70208692 16.52069521 -0.22887772 14.72696593 -3.375 12.3125 C-4.014375 11.879375 -4.65375 11.44625 -5.3125 11 C-6.375 9.3125 -6.375 9.3125 -6.1875 5.75 C-5.12281241 1.24555251 -4.65189729 0.43073123 0 0 Z " fill="#000000" transform="translate(244.375,255.6875)"/>
<path d="M0 0 C3.65346285 0.47234744 5.94679793 0.58691008 9.625 -0.125 C12.75 -0.375 12.75 -0.375 15.75 1.6875 C17.75 4.625 17.75 4.625 17.875 7.75 C16.75 10.625 16.75 10.625 14.6875 12.4375 C7.85072071 15.20130439 2.59049845 14.90516615 -4.25 12.625 C-6.75 11.4375 -6.75 11.4375 -8.25 9.625 C-8.99052378 3.70080979 -8.99052378 3.70080979 -7.05078125 0.8828125 C-4.51422909 -0.88892242 -3.01983279 -0.44707022 0 0 Z " fill="#000000" transform="translate(251.25,315.375)"/>
<path d="M0 0 C2.82967777 0.96623143 4.51651825 1.67746405 6.5625 3.875 C6.8125 7.0625 6.8125 7.0625 6.5625 9.875 C4.4375 11.125 4.4375 11.125 1.5625 11.875 C-2.0046092 10.16004365 -3.96304247 9.01927993 -5.5 5.3125 C-5.4375 2.875 -5.4375 2.875 -4.3125 1 C-2.4375 -0.125 -2.4375 -0.125 0 0 Z " fill="#000000" transform="translate(181.4375,265.125)"/>
<path d="M0 0 C2.5625 0.375 2.5625 0.375 4.3125 2 C5.811543 4.8481817 6.35330296 7.16731203 6.5625 10.375 C4.5625 12.375 4.5625 12.375 1.625 12.8125 C-1.4375 12.375 -1.4375 12.375 -3.3125 10.1875 C-4.47807351 7.27356624 -4.85610974 5.4727121 -4.4375 2.375 C-2.4375 0.375 -2.4375 0.375 0 0 Z " fill="#000000" transform="translate(193.4375,279.625)"/>
<path d="M0 0 C2.3125 0.4375 2.3125 0.4375 4.3125 2.4375 C4.8125 4.75 4.8125 4.75 4.3125 7.4375 C2.46278917 9.41626042 0.51956386 10.8281826 -1.6875 12.4375 C-4.125 11.75 -4.125 11.75 -6.6875 10.4375 C-7.8125 8.125 -7.8125 8.125 -7.6875 5.4375 C-5.33981002 2.33026326 -3.90961248 0.63644854 0 0 Z " fill="#000000" transform="translate(331.6875,264.5625)"/>
<path d="M0 0 C2.8125 0.4375 2.8125 0.4375 3.8125 1.4375 C4.26176708 5.39105026 4.12121428 6.99372323 1.8125 10.3125 C1.1525 11.01375 0.4925 11.715 -0.1875 12.4375 C-3.1575 11.9425 -3.1575 11.9425 -6.1875 11.4375 C-7.45379073 7.84967625 -7.28385844 6.6417799 -5.625 3.125 C-3.1875 0.4375 -3.1875 0.4375 0 0 Z " fill="#000000" transform="translate(195.1875,317.5625)"/>
<path d="M0 0 C1.051875 -0.02126953 1.051875 -0.02126953 2.125 -0.04296875 C4 0.1875 4 0.1875 6 2.1875 C6.3125 4.6875 6.3125 4.6875 6 7.1875 C1.93150591 9.89982939 -0.16476784 9.49449887 -5 9.1875 C-5.66 8.5275 -6.32 7.8675 -7 7.1875 C-6.75 4.125 -6.75 4.125 -6 1.1875 C-3.77109005 0.07304502 -2.46944894 0.02269714 0 0 Z " fill="#000000" transform="translate(348,257.8125)"/>
<path d="M0 0 C2.0078125 0.23046875 2.0078125 0.23046875 5.0078125 2.23046875 C5.2578125 5.29296875 5.2578125 5.29296875 5.0078125 8.23046875 C4.0078125 9.23046875 4.0078125 9.23046875 0.1953125 9.48046875 C-3.43185049 9.4544209 -5.35224453 8.87041172 -7.9921875 6.23046875 C-6.89032946 0.09154541 -6.35496092 0.12897522 0 0 Z " fill="#000000" transform="translate(165.9921875,257.76953125)"/>
<path d="M0 0 C2.75 -0.3125 2.75 -0.3125 6 0 C8.4375 2.125 8.4375 2.125 10 5 C9.75 8.3125 9.75 8.3125 9 11 C7.02 11.33 5.04 11.66 3 12 C0.9375 9.9375 0.9375 9.9375 -1 7 C-0.75 3.1875 -0.75 3.1875 0 0 Z " fill="#000000" transform="translate(314,318)"/>
<path d="M0 0 C2.9375 0.1875 2.9375 0.1875 3.9375 1.1875 C4.00955511 2.87358966 4.02136068 4.56250659 4 6.25 C3.99097656 7.16910156 3.98195313 8.08820313 3.97265625 9.03515625 C3.96105469 9.74542969 3.94945312 10.45570313 3.9375 11.1875 C1.6875 12.375 1.6875 12.375 -1.0625 13.1875 C-3.375 12.3125 -3.375 12.3125 -5.0625 10.1875 C-5.53228901 7.3397666 -5.34193016 5.12151666 -5.0625 2.1875 C-3.0625 0.1875 -3.0625 0.1875 0 0 Z " fill="#000000" transform="translate(314.0625,298.8125)"/>
<path d="M0 0 C2.31 0.33 4.62 0.66 7 1 C7.35897436 7.22222222 7.35897436 7.22222222 5.875 10.4375 C4 12 4 12 0.875 12.3125 C-2 12 -2 12 -3 11 C-3.42407099 6.33521915 -2.69319525 3.81535994 0 0 Z " fill="#000000" transform="translate(316,280)"/>
<path d="M0 0 C0.94875 0.04125 1.8975 0.0825 2.875 0.125 C4.0648306 2.5046612 4.00849966 4.03985735 4 6.6875 C4.00257813 7.49316406 4.00515625 8.29882812 4.0078125 9.12890625 C3.875 11.125 3.875 11.125 2.875 12.125 C-0.0625 12.3125 -0.0625 12.3125 -3.125 12.125 C-5.125 10.125 -5.125 10.125 -5.390625 8.25 C-5.38546875 7.54875 -5.3803125 6.8475 -5.375 6.125 C-5.38015625 5.42375 -5.3853125 4.7225 -5.390625 4 C-4.88506733 0.43135764 -3.38047153 0.13521886 0 0 Z " fill="#000000" transform="translate(199.125,298.875)"/>
</svg>
