<?xml version="1.0" standalone="no"?>
<!DOCTYPE svg PUBLIC "-//W3C//DTD SVG 20010904//EN"
 "http://www.w3.org/TR/2001/REC-SVG-20010904/DTD/svg10.dtd">
<svg version="1.0" xmlns="http://www.w3.org/2000/svg"
 width="32.000000pt" height="32.000000pt" viewBox="0 0 32.000000 32.000000"
 preserveAspectRatio="xMidYMid meet">

<g transform="translate(0.000000,32.000000) scale(0.100000,-0.100000)"
fill="#000000" stroke="none">
<path d="M118 304 c-28 -15 -48 -43 -48 -66 1 -7 7 1 14 18 8 18 27 36 45 44
42 17 88 -2 107 -44 7 -17 13 -25 14 -18 0 24 -20 52 -50 67 -36 18 -47 18
-82 -1z"/>
<path d="M116 246 c-14 -19 -26 -38 -26 -43 0 -4 12 9 27 30 29 41 41 44 81
21 l27 -16 -25 21 c-35 29 -54 26 -84 -13z"/>
<path d="M221 214 c0 -11 3 -14 6 -6 3 7 2 16 -1 19 -3 4 -6 -2 -5 -13z"/>
<path d="M73 147 c0 -37 3 -70 8 -73 5 -3 9 10 9 28 l1 33 14 -38 c17 -49 22
-53 30 -27 4 13 1 28 -8 38 -8 9 -23 37 -34 62 l-20 45 0 -68z m57 -62 c0 -19
-6 -19 -14 0 -3 8 -1 15 4 15 6 0 10 -7 10 -15z"/>
<path d="M225 168 c-9 -24 -23 -51 -32 -60 -9 -10 -12 -25 -8 -38 8 -26 13
-22 30 27 l14 38 1 -33 c0 -18 4 -31 9 -28 7 5 13 136 5 136 -1 0 -9 -19 -19
-42z m-21 -83 c-4 -8 -8 -15 -10 -15 -2 0 -4 7 -4 15 0 8 4 15 10 15 5 0 7 -7
4 -15z"/>
<path d="M148 133 c6 -2 18 -2 25 0 6 3 1 5 -13 5 -14 0 -19 -2 -12 -5z"/>
<path d="M85 50 c-3 -5 -1 -10 4 -10 6 0 11 5 11 10 0 6 -2 10 -4 10 -3 0 -8
-4 -11 -10z"/>
<path d="M220 50 c0 -5 5 -10 11 -10 5 0 7 5 4 10 -3 6 -8 10 -11 10 -2 0 -4
-4 -4 -10z"/>
<path d="M49 23 c-13 -16 -12 -17 4 -4 16 13 21 21 13 21 -2 0 -10 -8 -17 -17z"/>
<path d="M111 24 c0 -11 3 -14 6 -6 3 7 2 16 -1 19 -3 4 -6 -2 -5 -13z"/>
<path d="M201 24 c0 -11 3 -14 6 -6 3 7 2 16 -1 19 -3 4 -6 -2 -5 -13z"/>
<path d="M250 36 c0 -2 8 -10 18 -17 15 -13 16 -12 3 4 -13 16 -21 21 -21 13z"/>
</g>
</svg>
